<svg xmlns="http://www.w3.org/2000/svg" xmlns:xlink="http://www.w3.org/1999/xlink" width="1240" zoomAndPan="magnify" viewBox="0 0 930 929.999989" height="1240" preserveAspectRatio="xMidYMid meet" version="1.0"><defs><clipPath id="a36b24ab13"><path d="M 127 88 L 905 88 L 905 555 L 127 555 Z M 127 88 " clip-rule="nonzero"/></clipPath><clipPath id="848a9b0075"><path d="M 243.15625 -43.199219 L 988.789062 282.71875 L 686.902344 973.371094 L -58.730469 647.453125 Z M 243.15625 -43.199219 " clip-rule="nonzero"/></clipPath><clipPath id="7471595aec"><path d="M 243.15625 -43.199219 L 988.789062 282.71875 L 686.902344 973.371094 L -58.730469 647.453125 Z M 243.15625 -43.199219 " clip-rule="nonzero"/></clipPath><clipPath id="beaaafa806"><path d="M 25 375 L 803 375 L 803 842 L 25 842 Z M 25 375 " clip-rule="nonzero"/></clipPath><clipPath id="6c49e14341"><path d="M 243.15625 -43.199219 L 988.789062 282.71875 L 686.902344 973.371094 L -58.730469 647.453125 Z M 243.15625 -43.199219 " clip-rule="nonzero"/></clipPath><clipPath id="03d5f5b1c6"><path d="M 243.15625 -43.199219 L 988.789062 282.71875 L 686.902344 973.371094 L -58.730469 647.453125 Z M 243.15625 -43.199219 " clip-rule="nonzero"/></clipPath><clipPath id="1826bc1afb"><path d="M 347.183594 267 L 695.183594 267 L 695.183594 533 L 347.183594 533 Z M 347.183594 267 " clip-rule="nonzero"/></clipPath><clipPath id="82c64106b7"><path d="M 196.824219 345.175781 L 250.824219 345.175781 L 250.824219 399 L 196.824219 399 Z M 196.824219 345.175781 " clip-rule="nonzero"/></clipPath><clipPath id="94d64cbd08"><path d="M 417.253906 170.230469 L 512.503906 170.230469 L 512.503906 265.480469 L 417.253906 265.480469 Z M 417.253906 170.230469 " clip-rule="nonzero"/></clipPath><clipPath id="284269dc85"><path d="M 279.238281 241.789062 L 359 241.789062 L 359 313.789062 L 279.238281 313.789062 Z M 279.238281 241.789062 " clip-rule="nonzero"/></clipPath><clipPath id="96615a6449"><path d="M 560.457031 628.914062 L 641.457031 628.914062 L 641.457031 709.914062 L 560.457031 709.914062 Z M 560.457031 628.914062 " clip-rule="nonzero"/></clipPath><clipPath id="b9410583d2"><path d="M 416.078125 669.546875 L 513.578125 669.546875 L 513.578125 767.046875 L 416.078125 767.046875 Z M 416.078125 669.546875 " clip-rule="nonzero"/></clipPath><clipPath id="f46d34a233"><path d="M 669 566 L 731.894531 566 L 731.894531 628.964844 L 669 628.964844 Z M 669 566 " clip-rule="nonzero"/></clipPath></defs><g clip-path="url(#a36b24ab13)"><g clip-path="url(#848a9b0075)"><g clip-path="url(#7471595aec)"><path fill="#ffffff" d="M 875.085938 541.0625 L 904.34375 323.644531 C 905.226562 317.152344 901.761719 310.59375 895.453125 307.835938 C 891.640625 306.167969 887.515625 306.207031 883.925781 307.613281 L 817.738281 333.539062 C 783.308594 241.207031 713.070312 162.339844 615.863281 119.851562 C 430.808594 38.964844 215.351562 119.167969 127.105469 298.636719 L 175.078125 338.269531 C 244.953125 178.414062 431.867188 105.199219 591.726562 175.074219 C 673.703125 210.90625 732.789062 277.5625 761.589844 355.53125 L 685.519531 385.324219 C 681.914062 386.726562 678.875 389.507812 677.207031 393.316406 C 674.449219 399.628906 676.367188 406.796875 681.414062 410.972656 L 850.554688 550.679688 C 851.625 551.542969 852.796875 552.285156 854.125 552.867188 C 861.757812 556.203125 870.625 552.730469 873.964844 545.09375 C 874.542969 543.769531 874.898438 542.429688 875.085938 541.0625 Z M 875.085938 541.0625 " fill-opacity="1" fill-rule="nonzero"/></g></g></g><g clip-path="url(#beaaafa806)"><g clip-path="url(#6c49e14341)"><g clip-path="url(#03d5f5b1c6)"><path fill="#ffffff" d="M 754.921875 591.722656 C 685.046875 751.578125 498.132812 824.792969 338.273438 754.917969 C 256.296875 719.085938 197.171875 652.445312 168.390625 574.46875 L 244.480469 544.667969 C 248.082031 543.265625 251.125 540.484375 252.789062 536.675781 C 255.546875 530.363281 253.632812 523.195312 248.585938 519.019531 L 79.441406 379.3125 C 78.386719 378.453125 77.199219 377.707031 75.875 377.125 C 68.242188 373.789062 59.371094 377.261719 56.035156 384.898438 C 55.457031 386.222656 55.09375 387.578125 54.914062 388.929688 L 25.652344 606.347656 C 24.773438 612.839844 28.238281 619.398438 34.546875 622.15625 C 38.355469 623.824219 42.484375 623.785156 46.074219 622.378906 L 112.300781 596.4375 C 146.726562 688.769531 216.929688 767.652344 314.136719 810.140625 C 499.1875 891.027344 714.648438 810.824219 802.894531 631.355469 Z M 754.921875 591.722656 " fill-opacity="1" fill-rule="nonzero"/></g></g></g><g clip-path="url(#1826bc1afb)"><path fill="#ffffff" d="M 457.859375 476.28125 L 375.445312 393.867188 L 347.480469 421.835938 L 457.859375 532.210938 L 695.019531 295.050781 L 667.054688 267.085938 Z M 457.859375 476.28125 " fill-opacity="1" fill-rule="nonzero"/></g><g clip-path="url(#82c64106b7)"><path fill="#ffffff" d="M 245.140625 350.546875 L 245.140625 393.492188 L 202.191406 393.492188 L 202.191406 350.546875 L 245.140625 350.546875 M 245.140625 345.175781 L 202.191406 345.175781 C 199.238281 345.175781 196.824219 347.59375 196.824219 350.546875 L 196.824219 393.492188 C 196.824219 396.445312 199.238281 398.859375 202.191406 398.859375 L 245.140625 398.859375 C 248.089844 398.859375 250.507812 396.445312 250.507812 393.492188 L 250.507812 350.546875 C 250.507812 347.59375 248.089844 345.175781 245.140625 345.175781 Z M 245.140625 345.175781 " fill-opacity="1" fill-rule="nonzero"/></g><g clip-path="url(#94d64cbd08)"><path fill="#ffffff" d="M 503.1875 179.777344 L 503.1875 256.164062 L 426.800781 256.164062 L 426.800781 179.777344 L 503.1875 179.777344 M 503.1875 170.230469 L 426.800781 170.230469 C 421.550781 170.230469 417.253906 174.527344 417.253906 179.777344 L 417.253906 256.164062 C 417.253906 261.417969 421.550781 265.714844 426.800781 265.714844 L 503.1875 265.714844 C 508.441406 265.714844 512.738281 261.417969 512.738281 256.164062 L 512.738281 179.777344 C 512.738281 174.527344 508.441406 170.230469 503.1875 170.230469 Z M 503.1875 170.230469 " fill-opacity="1" fill-rule="nonzero"/></g><g clip-path="url(#284269dc85)"><path fill="#ffffff" d="M 287.875 241.789062 C 283.445312 241.789062 279.84375 245.390625 279.84375 249.820312 L 279.84375 306.050781 C 279.84375 310.480469 283.445312 314.082031 287.875 314.082031 L 344.105469 314.082031 C 348.535156 314.082031 352.136719 310.480469 352.136719 306.050781 L 352.136719 266.859375 L 344.105469 274.890625 L 344.113281 306.050781 L 287.875 306.050781 L 287.875 249.820312 L 335.097656 249.820312 L 343.132812 241.789062 Z M 353.3125 242.964844 L 311.972656 284.304688 L 298.75 271.078125 L 293.070312 276.757812 L 311.972656 295.664062 L 358.992188 248.644531 Z M 353.3125 242.964844 " fill-opacity="1" fill-rule="nonzero"/></g><g clip-path="url(#96615a6449)"><path fill="#ffffff" d="M 601.085938 628.914062 C 578.699219 628.914062 560.457031 647.15625 560.457031 669.542969 C 560.457031 691.929688 578.699219 710.171875 601.085938 710.171875 C 623.472656 710.171875 641.714844 691.929688 641.714844 669.542969 C 641.714844 647.15625 623.472656 628.914062 601.085938 628.914062 Z M 601.085938 704.363281 C 581.871094 704.363281 566.269531 688.761719 566.269531 669.542969 C 566.269531 650.328125 581.871094 634.726562 601.085938 634.726562 C 620.304688 634.726562 635.90625 650.328125 635.90625 669.542969 C 635.90625 688.761719 620.304688 704.363281 601.085938 704.363281 Z M 601.085938 704.363281 " fill-opacity="1" fill-rule="nonzero"/></g><path fill="#ffffff" d="M 590.765625 674.867188 C 589.425781 673.972656 589.058594 672.183594 589.953125 670.84375 C 590.847656 669.503906 592.636719 669.136719 593.976562 670.03125 L 598.160156 672.835938 L 598.160156 652.113281 C 598.160156 650.53125 599.460938 649.230469 601.046875 649.230469 C 602.628906 649.230469 603.929688 650.53125 603.929688 652.113281 L 603.929688 672.792969 L 608.117188 669.992188 C 609.457031 669.097656 611.242188 669.460938 612.136719 670.804688 C 613.03125 672.144531 612.664062 673.929688 611.324219 674.824219 L 602.710938 680.675781 C 602.671875 680.714844 602.628906 680.714844 602.589844 680.714844 C 602.550781 680.757812 602.507812 680.796875 602.46875 680.796875 C 602.347656 680.878906 602.222656 680.878906 602.101562 680.960938 C 602.019531 681 601.941406 681.042969 601.859375 681.042969 C 601.613281 681.121094 601.371094 681.164062 601.128906 681.164062 C 600.882812 681.164062 600.597656 681.121094 600.355469 681.042969 C 600.273438 681 600.191406 681 600.113281 680.960938 C 599.949219 680.878906 599.785156 680.839844 599.625 680.714844 C 599.582031 680.675781 599.542969 680.675781 599.503906 680.675781 Z M 590.765625 674.867188 " fill-opacity="1" fill-rule="nonzero"/><path fill="#ffffff" d="M 618.515625 686.972656 C 618.515625 688.558594 617.214844 689.859375 615.632812 689.859375 L 586.582031 689.859375 C 584.996094 689.859375 583.699219 688.558594 583.699219 686.972656 C 583.699219 685.390625 584.996094 684.089844 586.582031 684.089844 L 615.589844 684.089844 C 617.214844 684.046875 618.515625 685.347656 618.515625 686.972656 Z M 618.515625 686.972656 " fill-opacity="1" fill-rule="nonzero"/><g clip-path="url(#b9410583d2)"><path fill="#ffffff" d="M 499.589844 683.875 C 490.347656 674.632812 478.066406 669.546875 465 669.546875 C 451.929688 669.546875 439.648438 674.632812 430.40625 683.875 C 421.167969 693.113281 416.078125 705.398438 416.078125 718.464844 C 416.078125 731.53125 421.167969 743.816406 430.40625 753.054688 C 439.648438 762.292969 451.929688 767.382812 465 767.382812 C 478.066406 767.382812 490.347656 762.292969 499.589844 753.054688 C 508.828125 743.816406 513.917969 731.53125 513.917969 718.464844 C 513.917969 705.398438 508.828125 693.113281 499.589844 683.875 Z M 432.625 686.09375 C 441.273438 677.445312 452.769531 672.683594 465 672.683594 C 477.226562 672.683594 488.722656 677.445312 497.371094 686.09375 C 506.015625 694.738281 510.777344 706.234375 510.777344 718.464844 C 510.777344 728.628906 507.484375 738.289062 501.40625 746.222656 C 496.570312 739.460938 488.847656 735.464844 480.457031 735.464844 L 449.539062 735.464844 C 441.148438 735.464844 433.425781 739.460938 428.589844 746.222656 C 422.511719 738.289062 419.21875 728.628906 419.21875 718.464844 C 419.21875 706.234375 423.980469 694.738281 432.625 686.09375 Z M 465 732.886719 C 477.566406 732.886719 487.792969 722.660156 487.792969 710.09375 C 487.792969 697.523438 477.566406 687.300781 465 687.300781 C 452.429688 687.300781 442.203125 697.523438 442.203125 710.09375 C 442.203125 722.660156 452.429688 732.886719 465 732.886719 Z M 465 732.886719 " fill-opacity="1" fill-rule="nonzero"/></g><g clip-path="url(#f46d34a233)"><path fill="#ffffff" d="M 706.203125 628.578125 L 694.273438 628.578125 C 693.871094 628.597656 693.476562 628.539062 693.097656 628.402344 C 692.714844 628.265625 692.375 628.0625 692.074219 627.792969 C 691.773438 627.519531 691.539062 627.203125 691.363281 626.839844 C 691.1875 626.472656 691.089844 626.089844 691.070312 625.683594 L 689.992188 619.042969 C 688.632812 618.488281 687.363281 617.769531 686.1875 616.890625 L 679.527344 619.664062 C 678.800781 619.988281 678.0625 620.015625 677.316406 619.746094 C 676.523438 619.492188 675.933594 618.996094 675.546875 618.253906 L 669.628906 607.984375 C 669.433594 607.65625 669.304688 607.304688 669.238281 606.925781 C 669.175781 606.546875 669.179688 606.171875 669.253906 605.796875 C 669.328125 605.421875 669.46875 605.070312 669.675781 604.75 C 669.878906 604.425781 670.136719 604.148438 670.441406 603.921875 L 675.808594 599.625 C 675.710938 598.898438 675.667969 598.167969 675.6875 597.4375 C 675.703125 596.871094 675.761719 596.308594 675.867188 595.753906 L 675.9375 595.34375 L 670.339844 590.878906 C 670.152344 590.726562 670.003906 590.542969 669.898438 590.324219 C 669.566406 589.828125 669.375 589.28125 669.316406 588.691406 C 669.257812 588.097656 669.34375 587.527344 669.570312 586.976562 L 675.582031 576.234375 C 675.660156 576.101562 675.75 575.984375 675.855469 575.875 C 676.070312 575.59375 676.324219 575.355469 676.621094 575.160156 C 676.914062 574.964844 677.234375 574.828125 677.578125 574.742188 C 677.921875 574.65625 678.269531 574.632812 678.621094 574.664062 C 678.972656 574.699219 679.308594 574.792969 679.632812 574.941406 L 686.1875 577.671875 C 687.222656 576.941406 688.320312 576.316406 689.3125 575.75 L 689.925781 575.398438 L 690.765625 568.976562 C 690.792969 568.792969 690.847656 568.617188 690.929688 568.453125 C 691.199219 567.84375 691.605469 567.34375 692.148438 566.957031 C 692.691406 566.570312 693.296875 566.347656 693.964844 566.292969 L 705.890625 566.292969 C 706.292969 566.273438 706.6875 566.332031 707.066406 566.46875 C 707.449219 566.605469 707.789062 566.808594 708.089844 567.078125 C 708.390625 567.351562 708.628906 567.667969 708.804688 568.035156 C 708.976562 568.398438 709.078125 568.785156 709.097656 569.1875 L 710.175781 575.828125 C 711.535156 576.386719 712.804688 577.101562 713.980469 577.980469 L 720.636719 575.207031 C 721.363281 574.890625 722.101562 574.863281 722.847656 575.125 C 723.640625 575.378906 724.230469 575.875 724.617188 576.617188 L 730.523438 586.886719 C 730.722656 587.214844 730.851562 587.570312 730.914062 587.945312 C 730.980469 588.324219 730.976562 588.699219 730.898438 589.074219 C 730.824219 589.449219 730.683594 589.800781 730.480469 590.125 C 730.273438 590.449219 730.019531 590.722656 729.710938 590.953125 L 724.34375 595.246094 C 724.441406 595.972656 724.480469 596.703125 724.464844 597.4375 C 724.449219 598 724.390625 598.5625 724.285156 599.117188 C 724.265625 599.246094 724.242188 599.375 724.222656 599.5 L 730.109375 603.992188 C 730.410156 604.210938 730.660156 604.476562 730.863281 604.789062 C 731.0625 605.101562 731.199219 605.441406 731.273438 605.804688 C 731.347656 606.167969 731.351562 606.535156 731.285156 606.902344 C 731.21875 607.265625 731.089844 607.609375 730.894531 607.925781 L 724.886719 618.339844 C 724.5 619.039062 723.925781 619.507812 723.164062 619.746094 C 722.378906 620.019531 721.613281 619.976562 720.867188 619.621094 L 714.214844 616.847656 L 713.671875 617.207031 C 712.667969 617.898438 711.617188 618.503906 710.515625 619.023438 L 709.394531 625.957031 C 709.363281 626.121094 709.3125 626.28125 709.238281 626.433594 C 708.96875 627.039062 708.558594 627.535156 708.015625 627.917969 C 707.472656 628.304688 706.867188 628.523438 706.203125 628.578125 Z M 694.304688 625.300781 L 706.175781 625.300781 C 706.105469 625.300781 706.136719 625.230469 706.199219 625.132812 L 707.40625 617.59375 C 707.457031 617.292969 707.578125 617.023438 707.777344 616.792969 C 707.976562 616.558594 708.21875 616.394531 708.507812 616.296875 C 709.703125 615.832031 710.820312 615.222656 711.863281 614.476562 C 712.316406 614.179688 712.761719 613.890625 713.210938 613.621094 C 713.683594 613.335938 714.171875 613.300781 714.679688 613.511719 L 722.222656 616.652344 L 727.972656 606.445312 L 721.53125 601.566406 C 721.097656 601.238281 720.878906 600.800781 720.878906 600.253906 C 720.890625 599.691406 720.953125 599.128906 721.058594 598.574219 C 721.132812 598.195312 721.179688 597.816406 721.191406 597.429688 C 721.238281 596.652344 721.160156 595.886719 720.960938 595.132812 C 720.855469 594.808594 720.847656 594.480469 720.945312 594.152344 C 721.042969 593.824219 721.226562 593.550781 721.492188 593.339844 L 727.597656 588.453125 L 721.730469 578.167969 L 714.367188 581.371094 C 714.089844 581.488281 713.804688 581.523438 713.507812 581.484375 C 713.210938 581.441406 712.945312 581.328125 712.710938 581.140625 C 711.363281 580.011719 709.855469 579.160156 708.195312 578.585938 C 707.902344 578.488281 707.660156 578.324219 707.460938 578.09375 C 707.265625 577.859375 707.140625 577.59375 707.09375 577.292969 L 705.859375 569.570312 L 693.996094 569.570312 C 694.054688 569.570312 694.027344 569.636719 693.976562 569.71875 L 693.078125 576.601562 C 693.011719 577.128906 692.75 577.527344 692.296875 577.800781 C 691.867188 578.058594 691.40625 578.316406 690.941406 578.582031 C 689.722656 579.238281 688.558594 579.980469 687.453125 580.8125 C 687.222656 580.996094 686.957031 581.109375 686.664062 581.152344 C 686.371094 581.191406 686.089844 581.15625 685.8125 581.046875 L 678.402344 577.980469 L 678.3125 578.050781 L 672.53125 588.421875 L 678.667969 593.339844 C 679.074219 593.667969 679.28125 594.09375 679.28125 594.617188 C 679.265625 595.183594 679.207031 595.742188 679.101562 596.296875 C 678.878906 597.457031 678.910156 598.605469 679.199219 599.75 C 679.304688 600.074219 679.3125 600.402344 679.214844 600.730469 C 679.117188 601.0625 678.933594 601.332031 678.667969 601.546875 L 672.558594 606.429688 L 678.433594 616.707031 L 685.796875 613.5 C 686.070312 613.390625 686.355469 613.355469 686.648438 613.394531 C 686.941406 613.4375 687.203125 613.550781 687.4375 613.730469 C 688.785156 614.859375 690.292969 615.710938 691.953125 616.285156 C 692.242188 616.382812 692.488281 616.546875 692.6875 616.777344 C 692.882812 617.011719 693.007812 617.277344 693.054688 617.582031 Z M 728.140625 606.582031 C 728.210938 606.65625 728.292969 606.714844 728.382812 606.761719 Z M 728.140625 606.582031 " fill-opacity="1" fill-rule="nonzero"/></g><path fill="#ffffff" d="M 700.242188 612.328125 C 699.261719 612.328125 698.292969 612.234375 697.335938 612.042969 C 696.375 611.851562 695.445312 611.570312 694.542969 611.195312 C 693.636719 610.820312 692.78125 610.363281 691.96875 609.820312 C 691.152344 609.277344 690.402344 608.660156 689.710938 607.96875 C 689.019531 607.273438 688.402344 606.523438 687.859375 605.710938 C 687.316406 604.898438 686.855469 604.039062 686.480469 603.136719 C 686.109375 602.230469 685.824219 601.300781 685.632812 600.339844 C 685.445312 599.382812 685.347656 598.414062 685.347656 597.4375 C 685.347656 596.457031 685.445312 595.488281 685.632812 594.53125 C 685.824219 593.570312 686.109375 592.640625 686.480469 591.738281 C 686.855469 590.832031 687.316406 589.976562 687.859375 589.160156 C 688.402344 588.347656 689.019531 587.597656 689.710938 586.90625 C 690.402344 586.214844 691.152344 585.597656 691.96875 585.054688 C 692.78125 584.507812 693.636719 584.050781 694.542969 583.675781 C 695.445312 583.300781 696.375 583.019531 697.335938 582.828125 C 698.292969 582.636719 699.261719 582.542969 700.242188 582.542969 C 701.21875 582.542969 702.1875 582.636719 703.148438 582.828125 C 704.105469 583.019531 705.035156 583.300781 705.941406 583.675781 C 706.84375 584.050781 707.703125 584.507812 708.515625 585.054688 C 709.328125 585.597656 710.082031 586.214844 710.773438 586.90625 C 711.464844 587.597656 712.082031 588.347656 712.625 589.160156 C 713.167969 589.976562 713.625 590.832031 714 591.738281 C 714.375 592.640625 714.65625 593.570312 714.847656 594.53125 C 715.039062 595.488281 715.132812 596.457031 715.132812 597.4375 C 715.132812 598.414062 715.035156 599.382812 714.84375 600.339844 C 714.652344 601.300781 714.371094 602.230469 713.996094 603.132812 C 713.621094 604.035156 713.164062 604.894531 712.617188 605.707031 C 712.074219 606.519531 711.457031 607.269531 710.765625 607.960938 C 710.074219 608.652344 709.324219 609.269531 708.511719 609.8125 C 707.699219 610.355469 706.839844 610.816406 705.9375 611.191406 C 705.035156 611.566406 704.105469 611.847656 703.144531 612.039062 C 702.1875 612.230469 701.21875 612.328125 700.242188 612.328125 Z M 700.242188 585.820312 C 699.480469 585.820312 698.722656 585.894531 697.976562 586.042969 C 697.226562 586.191406 696.5 586.414062 695.796875 586.707031 C 695.09375 586.996094 694.421875 587.355469 693.789062 587.777344 C 693.15625 588.203125 692.566406 588.683594 692.027344 589.222656 C 691.488281 589.761719 691.007812 590.347656 690.582031 590.984375 C 690.160156 591.617188 689.800781 592.285156 689.511719 592.992188 C 689.21875 593.695312 689 594.421875 688.851562 595.171875 C 688.699219 595.917969 688.625 596.671875 688.625 597.4375 C 688.625 598.199219 688.699219 598.953125 688.851562 599.703125 C 689 600.449219 689.21875 601.175781 689.511719 601.878906 C 689.800781 602.585938 690.160156 603.253906 690.582031 603.890625 C 691.007812 604.523438 691.488281 605.109375 692.027344 605.648438 C 692.566406 606.1875 693.15625 606.667969 693.789062 607.09375 C 694.421875 607.515625 695.09375 607.875 695.796875 608.167969 C 696.5 608.457031 697.226562 608.679688 697.976562 608.828125 C 698.722656 608.976562 699.480469 609.050781 700.242188 609.050781 C 701.003906 609.050781 701.757812 608.976562 702.507812 608.828125 C 703.253906 608.679688 703.980469 608.457031 704.6875 608.167969 C 705.390625 607.875 706.058594 607.515625 706.695312 607.09375 C 707.328125 606.667969 707.914062 606.1875 708.453125 605.648438 C 708.992188 605.109375 709.476562 604.523438 709.898438 603.890625 C 710.320312 603.253906 710.679688 602.585938 710.972656 601.878906 C 711.261719 601.175781 711.484375 600.449219 711.632812 599.703125 C 711.78125 598.953125 711.855469 598.199219 711.855469 597.4375 C 711.855469 596.671875 711.78125 595.917969 711.628906 595.171875 C 711.480469 594.421875 711.261719 593.699219 710.96875 592.992188 C 710.675781 592.289062 710.316406 591.621094 709.894531 590.988281 C 709.46875 590.351562 708.988281 589.765625 708.449219 589.226562 C 707.910156 588.6875 707.324219 588.207031 706.691406 587.78125 C 706.058594 587.359375 705.386719 587 704.683594 586.707031 C 703.980469 586.417969 703.253906 586.195312 702.507812 586.046875 C 701.757812 585.898438 701.003906 585.820312 700.242188 585.820312 Z M 700.242188 585.820312 " fill-opacity="1" fill-rule="nonzero"/></svg>